{
  "accessors": [
    {
      "bufferView": 2,
      "componentType": 5126,
      "count": 847,
      "max": [
        0.2149060070514679,
        0.331373006105423,
        1.0
      ],
      "min": [
        -0.2149060070514679,
        -0.39980199933052063,
        -0.20798499882221222
      ],
      "type": "VEC3"
    },
    {
      "bufferView": 2,
      "byteOffset": 10164,
      "componentType": 5126,
      "count": 847,
      "max": [
        1.0,
        0.9962608814239502,
        0.9999783635139465
      ],
      "min": [
        -0.9994204640388489,
        -1.0,
        -0.99997878074646
      ],
      "type": "VEC3"
    },
    {
      "bufferView": 3,
      "componentType": 5126,
      "count": 847,
      "max": [
        0.999661386013031,
        0.9970582127571106,
        0.9988914132118225,
        1.0
      ],
      "min": [
        -1.0,
        -1.0,
        -0.9988930225372314,
        -1.0
      ],
      "type": "VEC4"
    },
    {
      "bufferView": 1,
      "componentType": 5126,
      "count": 847,
      "max": [
        0.9181560277938843,
        0.8975489735603333
      ],
      "min": [
        0.005696999840438366,
        0.005696999840438366
      ],
      "type": "VEC2"
    },
    {
      "bufferView": 0,
      "componentType": 5125,
      "count": 3531,
      "type": "SCALAR"
    },
    {
      "bufferView": 2,
      "byteOffset": 20328,
      "componentType": 5126,
      "count": 776,
      "max": [
        0.2149060070514679,
        0.331373006105423,
        -0.40911900997161865
      ],
      "min": [
        -0.2149060070514679,
        -0.39980199933052063,
        -1.0
      ],
      "type": "VEC3"
    },
    {
      "bufferView": 2,
      "byteOffset": 29640,
      "componentType": 5126,
      "count": 776,
      "max": [
        1.0,
        0.9962952136993408,
        0.9999986290931702
      ],
      "min": [
        -0.9984800219535828,
        -1.0,
        -0.9999986290931702
      ],
      "type": "VEC3"
    },
    {
      "bufferView": 3,
      "byteOffset": 13552,
      "componentType": 5126,
      "count": 776,
      "max": [
        0.9909156560897827,
        0.9992822408676147,
        0.9987602233886719,
        1.0
      ],
      "min": [
        -0.9930608868598938,
        -1.0,
        -0.9987589716911316,
        -1.0
      ],
      "type": "VEC4"
    },
    {
      "bufferView": 1,
      "byteOffset": 6776,
      "componentType": 5126,
      "count": 776,
      "max": [
        0.9947599768638611,
        0.789434015750885
      ],
      "min": [
        0.005239999853074551,
        0.005239999853074551
      ],
      "type": "VEC2"
    },
    {
      "bufferView": 0,
      "byteOffset": 14124,
      "componentType": 5125,
      "count": 3240,
      "type": "SCALAR"
    }
  ],
  "asset": {
    "extras": {
      "author": "Andrey_Dega (https://sketchfab.com/Andrey_Dega)",
      "license": "CC-BY-4.0 (http://creativecommons.org/licenses/by/4.0/)",
      "source": "https://sketchfab.com/3d-models/old-leather-furniture-5f0fe7ebcf4146869be789612f8928a4",
      "title": "Old leather furniture"
    },
    "generator": "Sketchfab-12.68.0",
    "version": "2.0"
  },
  "bufferViews": [
    {
      "buffer": 0,
      "byteLength": 27084,
      "name": "floatBufferViews",
      "target": 34963
    },
    {
      "buffer": 0,
      "byteLength": 12984,
      "byteOffset": 27084,
      "byteStride": 8,
      "name": "floatBufferViews",
      "target": 34962
    },
    {
      "buffer": 0,
      "byteLength": 38952,
      "byteOffset": 40068,
      "byteStride": 12,
      "name": "floatBufferViews",
      "target": 34962
    },
    {
      "buffer": 0,
      "byteLength": 25968,
      "byteOffset": 79020,
      "byteStride": 16,
      "name": "floatBufferViews",
      "target": 34962
    }
  ],
  "buffers": [
    {
      "byteLength": 104988,
      "uri": "scene.bin"
    }
  ],
  "images": [
    {
      "uri": "textures/Kreslo_baseColor.jpeg"
    },
    {
      "uri": "textures/Kreslo_metallicRoughness.png"
    },
    {
      "uri": "textures/Kreslo_normal.jpeg"
    },
    {
      "uri": "textures/Divan_baseColor.jpeg"
    },
    {
      "uri": "textures/Divan_metallicRoughness.png"
    },
    {
      "uri": "textures/Divan_normal.jpeg"
    }
  ],
  "materials": [
    {
      "doubleSided": true,
      "name": "Kreslo",
      "normalTexture": {
        "index": 2
      },
      "occlusionTexture": {
        "index": 1
      },
      "pbrMetallicRoughness": {
        "baseColorTexture": {
          "index": 0
        },
        "metallicRoughnessTexture": {
          "index": 1
        },
        "roughnessFactor": 0.8370807926829268
      }
    },
    {
      "doubleSided": true,
      "name": "Divan",
      "normalTexture": {
        "index": 5
      },
      "occlusionTexture": {
        "index": 4
      },
      "pbrMetallicRoughness": {
        "baseColorTexture": {
          "index": 3
        },
        "metallicFactor": 0.0,
        "metallicRoughnessTexture": {
          "index": 4
        },
        "roughnessFactor": 0.8553734756097561
      }
    }
  ],
  "meshes": [
    {
      "name": "defaultMaterial",
      "primitives": [
        {
          "attributes": {
            "NORMAL": 1,
            "POSITION": 0,
            "TANGENT": 2,
            "TEXCOORD_0": 3
          },
          "indices": 4,
          "material": 1,
          "mode": 4
        }
      ]
    },
    {
      "name": "defaultMaterial",
      "primitives": [
        {
          "attributes": {
            "NORMAL": 6,
            "POSITION": 5,
            "TANGENT": 7,
            "TEXCOORD_0": 8
          },
          "indices": 9,
          "material": 0,
          "mode": 4
        }
      ]
    }
  ],
  "nodes": [
    {
      "children": [
        1
      ],
      "matrix": [
        1.0,
        0.0,
        0.0,
        0.0,
        0.0,
        2.220446049250313e-16,
        -1.0,
        0.0,
        0.0,
        1.0,
        2.220446049250313e-16,
        0.0,
        0.0,
        0.0,
        0.0,
        1.0
      ],
      "name": "Sketchfab_model"
    },
    {
      "children": [
        2,
        4
      ],
      "matrix": [
        1.0,
        0.0,
        0.0,
        0.0,
        0.0,
        -4.371139006309477e-08,
        0.999999999999999,
        0.0,
        0.0,
        -0.999999999999999,
        -4.371139006309477e-08,
        0.0,
        0.0,
        0.0,
        0.0,
        1.0
      ],
      "name": "Collada visual scene group"
    },
    {
      "children": [
        3
      ],
      "name": "Divan_Box004.002"
    },
    {
      "mesh": 0,
      "name": "defaultMaterial"
    },
    {
      "children": [
        5
      ],
      "name": "Cube.006_Cube.008"
    },
    {
      "mesh": 1,
      "name": "defaultMaterial"
    }
  ],
  "samplers": [
    {
      "magFilter": 9729,
      "minFilter": 9987,
      "wrapS": 10497,
      "wrapT": 10497
    }
  ],
  "scene": 0,
  "scenes": [
    {
      "name": "Sketchfab_Scene",
      "nodes": [
        0
      ]
    }
  ],
  "textures": [
    {
      "sampler": 0,
      "source": 0
    },
    {
      "sampler": 0,
      "source": 1
    },
    {
      "sampler": 0,
      "source": 2
    },
    {
      "sampler": 0,
      "source": 3
    },
    {
      "sampler": 0,
      "source": 4
    },
    {
      "sampler": 0,
      "source": 5
    }
  ]
}
